{"title":"Lockup.S20E03.The.Crip.and.the.Cougar.HDTV.x264-MOMENTUM","uid":11152592,"size":326284819,"categoryP":"video","categoryS":"tv_shows","magnet":"?xt=urn:btih:d40b812d4ec1ba2b5a01b0a5f990aebb5221ccf7&amp;dn=Lockup.S20E03.The.Crip.and.the.Cougar.HDTV.x264-MOMENTUM&amp;tr=udp%3A%2F%2Ftracker.openbittorrent.com%3A80&amp;tr=udp%3A%2F%2Fopen.demonii.com%3A1337&amp;tr=udp%3A%2F%2Ftracker.coppersurfer.tk%3A6969&amp;tr=udp%3A%2F%2Fexodus.desync.com%3A6969","seeders":1,"leechers":1,"uploader":"BTGuy","files":-1,"time":1412367013,"description":"Poster:\n\n[img]http://www.ultraimg.com/images/LockupPosterResized.jpg[/img]\n\n\n\nInformation Link:\n\n[url]http://www.tvrage.com/Lockup_2005[/url]\n\nInformation Link:\n\n[url]http://www.imdb.com/title/tt0446847/[/url]\n\n\nShow Summary: A crime documentary series. Lockup takes viewers\ninside prisons and jails across America and around the world. \n\n\nLockup.S20E03.The.Crip.and.the.Cougar.HDTV.x264-MOMENTUM\n\nEpisode Title: Fairfax, VA: The Crip and the Cougar\n\nOriginal Airdate: September 20th, 2014\n\n\n\n[quote]\nGeneral\nComplete name                            : Lockup.S20E03.The.Crip.and.the.Cougar.HDTV.x264-MOMENTUM.mp4\nFormat                                   : MPEG-4\nFormat profile                           : Base Media\nCodec ID                                 : isom\nFile size                                : 303 MiB\nDuration                                 : 44mn 16s\nOverall bit rate mode                    : Variable\nOverall bit rate                         : 956 Kbps\n\nVideo\nID                                       : 1\nFormat                                   : AVC\nFormat/Info                              : Advanced Video Codec\nFormat profile                           : &lt;a class=&quot;__cf_email__&quot; href=&quot;/cdn-cgi/l/email-protection&quot; data-cfemail=&quot;85cdece2edc5c9b6abb4&quot;&gt;[email&amp;#160;protected]&lt;/a&gt;&lt;script cf-hash='f9e31' type=&quot;text/javascript&quot;&gt;\n/* &lt;![CDATA[ */!function(){try{var t=&quot;currentScript&quot;in document?document.currentScript:function(){for(var t=document.getElementsByTagName(&quot;script&quot;),e=t.length;e--;)if(t[e].getAttribute(&quot;cf-hash&quot;))return t[e]}();if(t&amp;&amp;t.previousSibling){var e,r,n,i,c=t.previousSibling,a=c.getAttribute(&quot;data-cfemail&quot;);if(a){for(e=&quot;&quot;,r=parseInt(a.substr(0,2),16),n=2;a.length-n;n+=2)i=parseInt(a.substr(n,2),16)^r,e+=String.fromCharCode(i);e=document.createTextNode(e),c.parentNode.replaceChild(e,c)}}}catch(u){}}();/* ]]&gt; */&lt;/script&gt;\nFormat settings, CABAC                   : Yes\nFormat settings, ReFrames                : 5 frames\nCodec ID                                 : avc1\nCodec ID/Info                            : Advanced Video Coding\nDuration                                 : 44mn 16s\nBit rate                                 : 807 Kbps\nMaximum bit rate                         : 4 561 Kbps\nWidth                                    : 720 pixels\nHeight                                   : 404 pixels\nDisplay aspect ratio                     : 16:9\nFrame rate mode                          : Constant\nFrame rate                               : 29.970 fps\nColor space                              : YUV\nChroma subsampling                       : 4:2:0\nBit depth                                : 8 bits\nScan type                                : Progressive\nBits/(Pixel*Frame)                       : 0.093\nStream size                              : 256 MiB (84%)\nTitle                                    : t\nWriting library                          : x264 core 142 r2479 dd79a61\n\nAudio\nID                                       : 2\nFormat                                   : AAC\nFormat/Info                              : Advanced Audio Codec\nFormat profile                           : LC\nCodec ID                                 : 40\nDuration                                 : 44mn 16s\nBit rate mode                            : Variable\nBit rate                                 : 144 Kbps\nMaximum bit rate                         : 163 Kbps\nChannel(s)                               : 2 channels\nChannel positions                        : Front: L R\nSampling rate                            : 48.0 KHz\nCompression mode                         : Lossy\nStream size                              : 45.6 MiB (15%)\n[/quote]\n\n\n\nScreenshots:\n\n[img]http://www.ultraimg.com/images/Lockup.S20E03.The.Crip.and.the.Cougar.HDTV.x264-MOMENTUM.mp4.jpg[/img]\n\n\n\nPlease Seed To Help Other People Download :)","torrent":{"xt":"urn:btih:d40b812d4ec1ba2b5a01b0a5f990aebb5221ccf7","amp;dn":"Lockup.S20E03.The.Crip.and.the.Cougar.HDTV.x264-MOMENTUM","amp;tr":["udp%3A%2F%2Ftracker.openbittorrent.com%3A80","udp%3A%2F%2Fopen.demonii.com%3A1337","udp%3A%2F%2Ftracker.coppersurfer.tk%3A6969","udp%3A%2F%2Fexodus.desync.com%3A6969"],"infoHash":"d40b812d4ec1ba2b5a01b0a5f990aebb5221ccf7","infoHashBuffer":{"type":"Buffer","data":[212,11,129,45,78,193,186,43,90,1,176,165,249,144,174,187,82,33,204,247]},"announce":[],"urlList":[]}}